<svg xmlns="http://www.w3.org/2000/svg" version="1.1" xmlns:xlink="http://www.w3.org/1999/xlink" xmlns:svgjs="http://svgjs.dev/svgjs" width="1000" height="1000" viewBox="0 0 1000 1000"><rect width="1000" height="1000" fill="#000000"></rect><g transform="matrix(0.7,0,0,0.7,150.0000000000001,106.25)"><svg viewBox="0 0 320 360" data-background-color="#ffffff" preserveAspectRatio="xMidYMid meet" height="1125" width="1000" xmlns="http://www.w3.org/2000/svg" xmlns:xlink="http://www.w3.org/1999/xlink"><g id="tight-bounds" transform="matrix(1,0,0,1,0,0)"><svg viewBox="0 0 320 360" height="360" width="320"><g><svg></svg></g><g><svg viewBox="0 0 320 360" height="360" width="320"><g><path xmlns="http://www.w3.org/2000/svg" d="M20.961 227.22l3.726 4.658-1.863-6.056c-0.466-2.795-3.726 0.466-1.863 1.398M25.153 224.425c1.397 2.329 2.795 4.658 2.795 6.987 0 3.261 2.795 4.658 5.123 5.589-3.261-3.726-5.124-13.974-7.918-12.576M204.017 26.929c7.918 0 15.371-0.932 23.756 0.931 20.495 5.124 37.729 15.371 49.374 29.811l32.606 52.169c1.397 13.042 4.192 27.482 3.726 43.319 3.261 0 2.795-4.658 6.521-5.59-3.726 9.316-5.59 20.961-6.521 34.469-2.329-7.453 0-18.632 0.466-24.687-3.261 5.124-5.124 1.397-5.124-0.932 0.466-3.726-1.397-3.261-2.795-4.658-5.124-4.658-8.384-9.782-12.11-17.7 2.329-6.055 2.795-14.905-4.658-19.563-2.329-1.397-5.124-3.726-6.521-7.453-1.863-5.124-5.124-11.179-4.193-19.097 0.466-2.329-6.987 5.124-11.179 1.863-18.166-12.576-36.332-27.016-58.224-39.127-11.645 0-20.029-4.192-24.221-9.316-3.726-4.658-0.932-10.713 4.658-11.179 3.261 0 6.987-0.932 9.782 0.932 0.466-1.863 2.329-4.192 4.657-4.192M157.904 16.215l0.932 0.466c4.658 0.932 6.987 7.453 12.11 5.124 0 3.261 0.466 6.521-0.466 8.85-1.397 3.726-5.59 3.726-8.85 3.726-31.208-1.863-49.374 11.179-68.471 22.358-5.124 3.261-10.713 5.59-14.906 9.782-20.029 18.632-41.921 35.866-47.045 70.335l-4.192 38.195c-0.466 4.192-5.124 8.384-4.192 13.508l3.26 22.824c-3.261-3.261-5.124 0.932-4.192 2.795 0.466 1.397 2.329 6.055 5.124 1.863 3.726 6.987 7.453 20.495 12.576 26.55 15.837 18.632 36.332 35.4 53.101 52.169 4.192-0.932 7.453-0.932 8.384-3.727 1.397 2.795-1.397 5.59-3.726 6.056 7.453 4.658 15.837 8.85 27.016 9.781 14.44 0.932 27.948 3.261 40.524 6.522 6.521-1.863 13.042-2.795 20.029-3.261 2.329 0 3.726-3.726 6.521-4.658l0.466-4.658c2.795 4.192 2.329-1.397 0.466-4.192 3.261 2.795 4.192 5.124 5.589 6.987 0-1.397 3.726-6.521 3.727-0.466l0.931-6.055c1.397-0.932 1.863 5.124 3.261 0.931 1.397-4.192 4.192-0.932 6.987-2.329-0.932 1.863-0.466 5.59 2.794 3.261l3.727-3.261c2.329 5.59 6.055 3.261 7.918 2.329 20.495-13.042 40.99-28.413 60.553-43.784l-0.466 6.055 2.329-7.453c2.329 2.329 4.192 0.466 5.124-0.931 2.795-4.658 6.521-9.316 12.577-13.508-7.453 20.029-16.303 35.866-27.482 48.908l-4.658 5.59c0 3.261-0.932 7.453-4.658 7.918-1.863 0.466-5.59-0.932-8.384 1.863-1.397 1.863 3.261 5.59-0.466 2.795-3.261-2.329-6.521 0-10.248 0.932-2.795 0.932 1.863 3.726 2.795 5.589 0.932 1.863 1.863 3.726 1.398 6.056l-5.124-5.59c-6.055 3.261-9.782 9.316-14.906 13.974-2.329 1.863-1.397 5.124-1.397 7.918-3.261 0-6.987-0.932-8.85 0.932-1.397 1.863-0.932 4.658-0.932 7.453-4.658-0.466-5.124-7.453-9.315-6.056-4.192 0.932-8.85 1.397-12.577 3.727 2.795 5.59-4.658 2.329-3.726 3.26-6.987-4.192-13.042-7.453-20.495-4.658-15.837-5.124-35.4-2.795-49.84-0.931 0-2.329 0.466-4.658-0.466-5.124-0.932 2.329-3.726 1.397-3.26 1.397-8.85-6.055-17.7-9.782-27.016-14.905-8.384 0.932-16.303-3.261-18.632-5.59-6.521-6.055-13.974-2.795-20.029-4.192-13.042-3.261-17.7-16.769-19.098-26.084-0.932-4.658-4.658-6.521-6.055-6.056-6.055-19.563-15.371-37.263-22.824-55.429-1.863-4.658-1.397-9.316-1.397-14.44 2.329 0.932 4.658 0.466 4.192-2.794-2.329-15.371-7.918-27.016-13.974-38.195 3.261-15.837 3.726-34.469 11.179-48.443 6.521-12.576 18.632-19.098 27.016-29.811 2.795-3.726 2.795-8.85 5.59-12.11 9.316-9.316 18.632-19.098 28.879-27.482 4.658-3.726 10.247 0 17.234-1.397 2.329-8.384 11.645-15.837 20.495-13.508 3.726 0.932 11.179-8.85 13.508-9.782 3.726-1.397 1.863 3.726 1.863 6.987 8.85-6.987 20.961-10.713 32.14-14.906" fill="#332885" fill-rule="nonzero" stroke="none" stroke-width="1" stroke-linecap="butt" stroke-linejoin="miter" stroke-miterlimit="10" stroke-dasharray="" stroke-dashoffset="0" font-family="none" font-weight="none" font-size="none" text-anchor="none" style="mix-blend-mode: normal" data-fill-palette-color="tertiary"></path></g><g transform="matrix(1,0,0,1,64,131.95622540556369)"><svg viewBox="0 0 192 96.08754918887263" height="96.08754918887263" width="192"><g><svg viewBox="0 0 192 96.08754918887263" height="96.08754918887263" width="192"><g><svg viewBox="0 0 192 96.08754918887263" height="96.08754918887263" width="192"><g transform="matrix(1,0,0,1,0,58.07709112570592)"><svg viewBox="0 0 192 38.0104580631667" height="38.0104580631667" width="192"><g><svg viewBox="0 0 192 38.0104580631667" height="38.0104580631667" width="192"><g><svg viewBox="0 0 192 38.0104580631667" height="38.0104580631667" width="192"><g transform="matrix(1,0,0,1,0,0)"><svg width="192" viewBox="3.6600000858306885 -36.060001373291016 233.42999267578125 46.220001220703125" height="38.0104580631667" data-palette-color="#332885"><path d="M27.2-5.54L10.55-5.54 10.55-35.55 3.66-35.55 3.66 0 27.2 0 27.2-5.54ZM57.88-11.13L57.88-11.13 51.02-11.13Q50.93-9.52 50.49-8.37 50.05-7.23 49.29-6.49L49.29-6.49Q48.53-5.76 47.46-5.42 46.38-5.08 45.04-5.08L45.04-5.08Q44.04-5.08 43.22-5.31 42.4-5.54 41.75-6.03L41.75-6.03Q41.14-6.47 40.66-7.13 40.18-7.79 39.84-8.64L39.84-8.64Q39.35-9.89 39.12-11.56 38.89-13.23 38.89-15.36L38.89-15.36 38.89-20.19Q38.89-21.75 39.04-23.11 39.18-24.46 39.5-25.59L39.5-25.59Q39.91-27.03 40.61-28.11 41.31-29.2 42.31-29.79L42.31-29.79Q42.89-30.13 43.59-30.3 44.28-30.47 45.09-30.47L45.09-30.47Q46.6-30.47 47.69-30.07 48.78-29.66 49.51-28.88L49.51-28.88Q50.22-28.08 50.6-26.88 50.97-25.68 51.07-24.1L51.07-24.1 57.91-24.1Q57.66-26.88 56.74-29.1 55.81-31.32 54.2-32.86L54.2-32.86Q52.59-34.4 50.3-35.23 48.02-36.06 45.09-36.06L45.09-36.06Q43.11-36.06 41.39-35.56 39.67-35.06 38.23-34.13L38.23-34.13Q36.62-33.03 35.35-31.45 34.08-29.86 33.3-27.83L33.3-27.83Q32.61-26.17 32.27-24.23 31.93-22.29 31.93-20.14L31.93-20.14 31.93-15.36Q31.93-13.06 32.31-11.01 32.69-8.96 33.4-7.25L33.4-7.25Q34.13-5.54 35.19-4.13 36.25-2.71 37.62-1.71L37.62-1.71Q39.11-0.63 40.98-0.06 42.84 0.51 45.04 0.51L45.04 0.51Q47.82 0.51 50.12-0.31 52.41-1.12 54.07-2.64L54.07-2.64Q55.73-4.15 56.72-6.3 57.71-8.45 57.88-11.13ZM70.5 0L70.5-13.04 75.8-13.04Q78.71-13.04 81.05-13.87 83.39-14.7 85.05-16.19L85.05-16.19Q86.69-17.65 87.58-19.68 88.47-21.7 88.47-24.1L88.47-24.1Q88.47-26.66 87.58-28.76 86.69-30.86 85.05-32.37L85.05-32.37Q83.39-33.86 81.05-34.7 78.71-35.55 75.8-35.55L75.8-35.55 63.64-35.55 63.64 0 70.5 0ZM75.8-18.6L70.5-18.6 70.5-29.98 75.8-29.98Q77.27-29.98 78.34-29.52 79.41-29.05 80.15-28.25L80.15-28.25Q80.85-27.44 81.21-26.37 81.56-25.29 81.56-24.05L81.56-24.05Q81.56-22.97 81.21-21.98 80.85-21 80.15-20.24L80.15-20.24Q79.41-19.48 78.34-19.04 77.27-18.6 75.8-18.6L75.8-18.6ZM135-22.19L131.63-35.55 123.11-35.55 123.11 0 129.41 0 129.41-10.52 129.12-26.49 133.29-11.72 136.68-11.72 141.35-27.15 141.05-10.52 141.05 0 147.35 0 147.35-35.55 138.83-35.55 135-22.19ZM169.96 0L169.96 0 176.84 0 176.84-0.42Q176.33-1.42 176.06-2.81 175.79-4.2 175.79-6.32L175.79-6.32 175.79-17.65Q175.79-19.95 174.94-21.69 174.08-23.44 172.57-24.58L172.57-24.58Q171.06-25.73 168.99-26.32 166.93-26.9 164.54-26.9L164.54-26.9Q161.88-26.9 159.81-26.23 157.75-25.56 156.34-24.41L156.34-24.41Q154.89-23.27 154.15-21.75 153.41-20.24 153.41-18.55L153.41-18.55 160.19-18.55Q160.19-19.26 160.4-19.85 160.61-20.43 161.05-20.85L161.05-20.85Q161.54-21.31 162.32-21.57 163.1-21.83 164.17-21.83L164.17-21.83Q165.39-21.83 166.31-21.52 167.22-21.22 167.83-20.65L167.83-20.65Q168.42-20.12 168.71-19.37 169.01-18.63 169.01-17.7L169.01-17.7 169.01-16.14 165.22-16.14Q162.29-16.14 160.03-15.61 157.78-15.09 156.24-14.09L156.24-14.09Q154.53-12.99 153.67-11.29 152.82-9.59 152.82-7.4L152.82-7.4Q152.82-5.69 153.5-4.24 154.19-2.78 155.41-1.73L155.41-1.73Q156.63-0.68 158.32-0.1 160.02 0.49 162.05 0.49L162.05 0.49Q163.29 0.49 164.37 0.26 165.44 0.02 166.34-0.39L166.34-0.39Q167.22-0.78 167.96-1.32 168.69-1.86 169.25-2.47L169.25-2.47Q169.37-1.76 169.54-1.12 169.71-0.49 169.96 0ZM163.49-4.76L163.49-4.76Q162.54-4.76 161.82-4.99 161.1-5.22 160.61-5.62L160.61-5.62Q160.12-6.03 159.86-6.63 159.61-7.23 159.61-7.93L159.61-7.93Q159.61-8.84 159.95-9.61 160.29-10.38 161-10.94L161-10.94Q161.71-11.47 162.83-11.78 163.95-12.08 165.54-12.08L165.54-12.08 169.01-12.08 169.01-7.54Q168.71-7.03 168.2-6.53 167.69-6.03 166.98-5.64L166.98-5.64Q166.27-5.25 165.39-5 164.51-4.76 163.49-4.76ZM183.55-26.42L183.55 10.16 190.34 10.16 190.34-2.29Q190.81-1.78 191.32-1.37 191.83-0.95 192.39-0.61L192.39-0.61Q193.34-0.07 194.46 0.21 195.57 0.49 196.88 0.49L196.88 0.49Q199.37 0.49 201.3-0.54 203.23-1.56 204.55-3.37L204.55-3.37Q205.84-5.15 206.52-7.62 207.19-10.08 207.19-12.96L207.19-12.96 207.19-13.48Q207.19-16.48 206.52-18.96 205.84-21.44 204.53-23.22L204.53-23.22Q203.21-24.98 201.28-25.94 199.35-26.9 196.84-26.9L196.84-26.9Q195.61-26.9 194.55-26.65 193.49-26.39 192.61-25.93L192.61-25.93Q191.88-25.54 191.24-25.01 190.61-24.49 190.07-23.83L190.07-23.83 189.83-26.42 183.55-26.42ZM200.4-13.48L200.4-13.48 200.4-12.96Q200.4-11.33 200.11-9.88 199.81-8.42 199.18-7.32L199.18-7.32Q198.54-6.23 197.53-5.59 196.52-4.96 195.08-4.96L195.08-4.96Q194.17-4.96 193.44-5.14 192.71-5.32 192.15-5.66L192.15-5.66Q191.56-6.03 191.11-6.54 190.66-7.06 190.34-7.69L190.34-7.69 190.34-18.73Q190.68-19.41 191.16-19.92 191.64-20.43 192.27-20.78L192.27-20.78Q192.83-21.07 193.52-21.23 194.2-21.39 195.03-21.39L195.03-21.39Q196.47-21.39 197.48-20.78 198.5-20.17 199.15-19.12L199.15-19.12Q199.79-18.04 200.09-16.59 200.4-15.14 200.4-13.48ZM230.5-7.25L230.5-7.25Q230.5-6.64 230.19-6.13 229.89-5.62 229.28-5.22L229.28-5.22Q228.64-4.83 227.66-4.6 226.67-4.37 225.35-4.37L225.35-4.37Q224.25-4.37 223.21-4.59 222.17-4.81 221.37-5.3L221.37-5.3Q220.56-5.76 220.05-6.53 219.54-7.3 219.46-8.37L219.46-8.37 213-8.37Q213-6.76 213.79-5.16 214.58-3.56 216.12-2.32L216.12-2.32Q217.66-1.05 219.94-0.27 222.22 0.51 225.2 0.51L225.2 0.51Q227.91 0.51 230.11-0.09 232.31-0.68 233.87-1.76L233.87-1.76Q235.41-2.83 236.25-4.31 237.09-5.79 237.09-7.54L237.09-7.54Q237.09-9.45 236.25-10.83 235.41-12.21 233.92-13.18L233.92-13.18Q232.43-14.14 230.38-14.75 228.33-15.36 225.93-15.75L225.93-15.75Q224.27-15.99 223.2-16.32 222.13-16.65 221.52-17.07L221.52-17.07Q220.88-17.46 220.64-17.96 220.39-18.46 220.39-19.04L220.39-19.04Q220.39-19.63 220.67-20.15 220.95-20.68 221.49-21.07L221.49-21.07Q222.08-21.51 223-21.75 223.93-22 225.18-22L225.18-22Q226.64-22 227.68-21.63 228.72-21.26 229.33-20.65L229.33-20.65Q229.77-20.19 229.99-19.62 230.21-19.04 230.21-18.38L230.21-18.38 236.99-18.38Q236.99-20.21 236.19-21.78 235.38-23.34 233.87-24.49L233.87-24.49Q232.33-25.61 230.13-26.26 227.94-26.9 225.18-26.9L225.18-26.9Q222.54-26.9 220.44-26.25 218.34-25.59 216.88-24.46L216.88-24.46Q215.41-23.34 214.63-21.85 213.85-20.36 213.85-18.73L213.85-18.73Q213.85-17.04 214.62-15.75 215.39-14.45 216.75-13.48L216.75-13.48Q218.12-12.48 220.04-11.78 221.96-11.08 224.27-10.62L224.27-10.62Q226.11-10.28 227.3-9.94 228.5-9.59 229.23-9.2L229.23-9.2Q229.94-8.79 230.22-8.33 230.5-7.86 230.5-7.25Z" opacity="1" transform="matrix(1,0,0,1,0,0)" fill="#ffffff" class="undefined-text-0" data-fill-palette-color="primary" id="text-0"></path></svg></g></svg></g></svg></g></svg></g><g transform="matrix(1,0,0,1,58.62554061081498,0)"><svg viewBox="0 0 74.74891877837004 52.53045304329638" height="52.53045304329638" width="74.74891877837004"><g><svg xmlns="http://www.w3.org/2000/svg" xmlns:xlink="http://www.w3.org/1999/xlink" version="1.1" x="0" y="0" viewBox="1 15.472000122070312 97.00199890136719 68.16899871826172" enable-background="new 0 0 100 100" xml:space="preserve" height="52.53045304329638" width="74.74891877837004" class="icon-icon-0" data-fill-palette-color="accent" id="icon-0"><g fill="#332885" data-fill-palette-color="accent"><g fill="#332885" data-fill-palette-color="accent"><polygon points="1,83.641 34.287,71.758 39.744,15.472 15.743,27.12   " fill="#ffffff" data-fill-palette-color="accent"></polygon><polygon points="63.988,27.617 68.854,83.641 98.002,71.862 83.851,16.075   " fill="#ffffff" data-fill-palette-color="accent"></polygon><polygon points="40.909,15.488 35.971,71.758 67.063,83.641 62.713,27.604   " fill="#ffffff" data-fill-palette-color="accent"></polygon></g></g></svg></g></svg></g><g></g></svg></g></svg></g></svg></g></svg></g><defs></defs></svg><rect width="320" height="360" fill="none" stroke="none" visibility="hidden"></rect></g></svg></g></svg>